# File created by Blade
# Date/Time:  Wed Jan 21 17:57:11 2015
# Frame Rate: 120.000 fps
#------------------------------------------------------
:FULLY-SPECIFIED
:DEGREES
1566
root 18.446868 30.097202 -13.316303 -120.684755 18.045022 -185.484111
Spine 59.371131 -8.407815 14.024535
Head 154.864930 6.541729 189.035862
LeftShoulder 63.616268 -67.299114 -15.246404
LeftArm 15.312462 23.847233 -35.474506
LeftForeArm 27.668959 -0.000000 65.949608
LeftHand -2.151423 -0.000000 20.644304
LeftHandThumb1 -26.253704 0.000000 33.147579
RightShoulder 16.077855 11.259213 -25.343375
RightArm 27.810294 51.542334 24.828878
RightForeArm -47.987851 0.000000 54.365655
RightHand -14.978752 -0.000000 5.228442
RightHandThumb1 -24.326973 -0.000000 -32.862282
LeftUpLeg -60.668002 29.169769 -1.966954
LeftLeg -2.400651 -0.000000 0.000000
LeftFoot -12.509027 15.478352 -21.865544
LeftToeBase 33.857812 -0.000000 -0.000000
RightUpLeg -76.773071 -27.361655 -15.733703
RightLeg -0.413706 -0.000000 0.000000
RightFoot -7.130649 -8.450010 21.594787
RightToeBase 21.120751 -0.000000 -0.000000
1567
root 18.424778 30.095471 -13.262118 -120.521385 17.713703 -185.408890
Spine 59.372824 -8.084946 13.815513
Head 155.342961 6.204947 188.900908
LeftShoulder 63.040993 -66.970665 -14.927291
LeftArm 14.766132 23.856118 -35.352487
LeftForeArm 27.956497 -0.000000 65.858469
LeftHand -2.313399 -0.000000 21.324960
LeftHandThumb1 -26.253704 0.000000 33.147579
RightShoulder 16.029870 11.033291 -25.479050
RightArm 27.765643 50.220767 24.363445
RightForeArm -48.225552 -0.000000 54.339311
RightHand -15.116378 -0.000000 1.969512
RightHandThumb1 -24.326973 -0.000000 -32.862282
LeftUpLeg -61.101596 29.105736 -1.877712
LeftLeg -2.251386 -0.000000 0.000000
LeftFoot -12.484926 15.307894 -21.644985
LeftToeBase 33.974479 -0.000000 -0.000000
RightUpLeg -76.883354 -27.488998 -15.368225
RightLeg -0.494736 -0.000000 0.000000
RightFoot -7.380787 -8.314191 21.828797
RightToeBase 21.161672 -0.000000 -0.000000
1568
root 18.409576 30.095018 -13.210615 -120.370015 17.393812 -185.288039
Spine 59.498808 -7.717040 13.602611
Head 156.022497 5.972156 188.814182
LeftShoulder 62.416111 -66.778621 -14.522758
LeftArm 14.278933 23.829037 -35.325756
LeftForeArm 28.269343 -0.000000 65.599983
LeftHand -2.241202 -0.000000 21.881941
LeftHandThumb1 -26.253704 0.000000 33.147579
RightShoulder 15.748187 9.467284 -25.530522
RightArm 28.994239 49.836675 23.899906
RightForeArm -48.034170 0.000000 53.715400
RightHand -15.228820 -0.000000 -1.900751
RightHandThumb1 -24.326973 -0.000000 -32.862282
LeftUpLeg -61.512130 29.112358 -1.795594
LeftLeg -2.115541 -0.000000 0.000000
LeftFoot -12.430008 15.087145 -21.435712
LeftToeBase 34.076842 -0.000000 -0.000000
RightUpLeg -76.975531 -27.550479 -14.998444
RightLeg -0.554794 -0.000000 0.000000
RightFoot -7.467684 -7.907057 21.895940
RightToeBase 20.922806 -0.000000 -0.000000
1569
root 18.393705 30.097093 -13.161544 -120.219375 17.049584 -185.235208
Spine 59.613130 -7.448989 13.378827
Head 156.657166 5.799498 188.687817
LeftShoulder 61.925867 -66.582310 -14.282532
LeftArm 13.791161 23.968084 -35.184183
LeftForeArm 28.799546 -0.000000 65.295709
LeftHand -2.357317 -0.000000 22.968934
LeftHandThumb1 -26.253704 0.000000 33.147579
RightShoulder 15.526390 8.115869 -25.632670
RightArm 29.915673 49.186919 23.216378
RightForeArm -48.044837 -0.000000 52.976884
RightHand -15.129407 0.000000 -6.207776
RightHandThumb1 -24.326973 -0.000000 -32.862282
LeftUpLeg -61.844283 28.984948 -1.628629
LeftLeg -2.067648 -0.000000 0.000000
LeftFoot -12.357516 14.982277 -21.326538
LeftToeBase 34.120389 -0.000000 -0.000000
RightUpLeg -77.085179 -27.686568 -14.642473
RightLeg -0.585941 -0.000000 0.000000
RightFoot -7.655559 -7.607467 21.926858
RightToeBase 21.071856 -0.000000 -0.000000
1570
root 18.372466 30.095438 -13.113911 -120.023534 16.764533 -185.192455
Spine 59.644965 -7.029408 13.281119
Head 157.290405 5.671093 188.644362
LeftShoulder 61.916485 -66.305830 -14.446993
LeftArm 13.339148 23.961533 -35.128107
LeftForeArm 29.607084 0.000000 64.896732
LeftHand -2.249321 -0.000000 24.127165
LeftHandThumb1 -26.253704 0.000000 33.147579
RightShoulder 15.238288 6.933354 -25.805159
RightArm 30.490602 48.498196 22.555054
RightForeArm -47.779076 -0.000000 52.516584
RightHand -14.899228 -0.000000 -9.954842
RightHandThumb1 -24.326973 -0.000000 -32.862282
LeftUpLeg -62.446793 28.987757 -1.799269
LeftLeg -1.829316 -0.000000 0.000000
LeftFoot -12.339848 14.640809 -21.062609
LeftToeBase 34.299356 -0.000000 -0.000000
RightUpLeg -77.199784 -27.790814 -14.476453
RightLeg -0.578044 -0.000000 0.000000
RightFoot -7.780762 -7.264355 22.107951
RightToeBase 21.270763 -0.000000 -0.000000
